<?xml version="1.0" standalone="no"?>
<!DOCTYPE svg PUBLIC "-//W3C//DTD SVG 20010904//EN"
 "http://www.w3.org/TR/2001/REC-SVG-20010904/DTD/svg10.dtd">
<svg version="1.0" xmlns="http://www.w3.org/2000/svg"
 width="90.000000pt" height="90.000000pt" viewBox="0 0 90.000000 90.000000"
 preserveAspectRatio="xMidYMid meet">

<g transform="translate(0.000000,90.000000) scale(0.100000,-0.100000)"
fill="#000000" stroke="none">
<path d="M110 790 c-19 -19 -20 -33 -20 -340 0 -307 1 -321 20 -340 19 -19 33
-20 250 -20 292 0 270 -15 270 185 l0 145 82 0 82 0 -38 -39 c-40 -41 -45 -73
-12 -79 22 -5 156 123 156 148 0 25 -134 153 -156 148 -33 -6 -28 -38 12 -79
l38 -39 -82 0 -82 0 0 73 0 72 -93 93 -92 92 -158 0 c-144 0 -159 -2 -177 -20z
m520 -340 l0 -30 -115 0 c-94 0 -117 3 -121 15 -15 39 1 45 121 45 l115 0 0
-30z"/>
</g>
</svg>
